<svg width="14" height="14" viewBox="0 0 14 14" fill="none" xmlns="http://www.w3.org/2000/svg">
<path d="M9.40894 0.782227C10.2876 -0.0964531 11.7129 -0.0964529 12.5916 0.782227L13.2537 1.44434C14.1323 2.32302 14.1323 3.74827 13.2537 4.62695L5.91968 11.9609C5.6114 12.2691 5.22018 12.4803 4.7937 12.5703L1.70093 13.2236C1.45287 13.2759 1.19464 13.1998 1.01538 13.0205C0.83614 12.8412 0.759979 12.583 0.812256 12.335L1.46558 9.24219C1.55561 8.81573 1.76682 8.42448 2.07495 8.11621L9.40894 0.782227ZM3.1355 9.17676C3.03288 9.27951 2.96235 9.41063 2.93237 9.55273L2.51733 11.5186L4.48315 11.1035C4.62525 11.0735 4.75638 11.003 4.85913 10.9004L10.4832 5.27637L8.75952 3.55273L3.1355 9.17676ZM11.53 1.84277C11.2371 1.54999 10.7623 1.54992 10.4695 1.84277L9.82007 2.49121L11.5437 4.21484L12.1931 3.56641C12.486 3.27353 12.4859 2.79876 12.1931 2.50586L11.53 1.84277Z" fill="#344054"/>
</svg>
